<?xml version="1.0" encoding="utf-8"?>
<!-- Generator: Adobe Illustrator 16.0.0, SVG Export Plug-In . SVG Version: 6.00 Build 0)  -->
<!DOCTYPE svg PUBLIC "-//W3C//DTD SVG 1.0//EN" "http://www.w3.org/TR/2001/REC-SVG-20010904/DTD/svg10.dtd">
<svg version="1.0" id="Ebene_1" xmlns="http://www.w3.org/2000/svg" xmlns:xlink="http://www.w3.org/1999/xlink" x="0px" y="0px"
	 width="283.46px" height="226.77px" viewBox="0 0 283.46 226.77" enable-background="new 0 0 283.46 226.77" xml:space="preserve">
<g>
	<path fill="#FFFFFF" d="M35.923,169.748c-10.843,12.003-9.903,30.519,2.098,41.362l39.264-43.462
		C65.283,156.807,46.765,157.748,35.923,169.748z"/>
	<path fill="#FFFFFF" d="M60.416,183.529c-1.841-1.662-1.985-4.504-0.322-6.346l0,0c1.663-1.842,4.504-1.984,6.346-0.322
		l12.779,11.545c1.841,1.662,1.985,4.505,0.322,6.346l0,0c-1.663,1.841-4.504,1.985-6.345,0.322L60.416,183.529z"/>
	<path fill="#FFFFFF" d="M46.36,199.088c-1.841-1.662-1.986-4.505-0.322-6.348l0,0c1.662-1.841,4.504-1.985,6.346-0.321
		l12.78,11.546c1.841,1.663,1.985,4.504,0.321,6.346l0,0c-1.663,1.84-4.504,1.984-6.345,0.322L46.36,199.088z"/>
</g>
<path d="M245.205,39.794"/>
<path fill="none" stroke="#FFFFFF" stroke-width="20" stroke-linecap="round" stroke-linejoin="round" stroke-miterlimit="10" d="
	M85.316,110.537c-44.483-28.044-98.635,13.512-47.384,60.438"/>
<g>
	<path fill="#FFFFFF" d="M250.854,59.113c11.846-11.014,12.52-29.542,1.508-41.387l-42.894,39.882
		C220.479,69.453,239.009,70.126,250.854,59.113z"/>
	<path fill="#FFFFFF" d="M227.651,43.255c1.691,1.816,1.587,4.659-0.229,6.35l0,0c-1.817,1.689-4.66,1.586-6.351-0.232
		L209.346,36.76c-1.69-1.817-1.587-4.661,0.23-6.35l0,0c1.817-1.689,4.659-1.587,6.349,0.23L227.651,43.255z"/>
	<path fill="#FFFFFF" d="M243.009,28.979c1.688,1.816,1.584,4.66-0.231,6.35l0,0c-1.817,1.69-4.661,1.585-6.35-0.232L224.7,22.483
		c-1.689-1.817-1.587-4.66,0.23-6.35l0,0c1.817-1.689,4.66-1.586,6.352,0.23L243.009,28.979z"/>
</g>
<path fill="none" stroke="#FFFFFF" stroke-width="20" stroke-linecap="round" stroke-linejoin="round" stroke-miterlimit="10" d="
	M196.498,113.806c41.876,31.804,99.437-4.882,52.461-56.088"/>
<path fill="#FFFFFF" d="M140.471,45.625c-38.487,0-69.687,31.201-69.687,69.688c0,38.488,31.2,69.686,69.687,69.686
	c38.488,0,69.688-31.197,69.688-69.686C210.159,76.826,178.959,45.625,140.471,45.625z M164.648,126.95
	c-7.907,2.42-9.754-9.358-3.395-12.361c10.192-8.181,4.714-22.361,0.861-32.439c-3.759,12.456-7.518,24.909-11.277,37.364
	c-5.196,13.556-5.591,31.925-19.994,39.495c-15.269,7.574-34.593-7.381-31.501-23.907c1.443-17.598,26.333-25.758,37.92-12.596
	c4.192-13.257,8.384-26.514,12.577-39.771c3.15-7.911,4.183-17.236,8.589-24.316c1.555-0.96,2.083,1.513,2.887,2.231
	c5.487,9.391,11.376,18.738,16.031,28.526C183.623,102.295,178.491,121.199,164.648,126.95z"/>
</svg>
